<svg width="61" height="58" viewBox="0 0 61 58" fill="none" xmlns="http://www.w3.org/2000/svg">
<path d="M35.8744 53.4893C35.5761 54.3348 35.0668 55.0902 34.3948 55.6838C33.7228 56.2774 32.9103 56.6896 32.0344 56.8813C30.7825 57.1696 29.4683 56.9864 28.3429 56.3667C27.2176 55.7471 26.3601 54.7344 25.9344 53.5223C25.5258 52.3821 25.5258 51.1355 25.9344 49.9953C26.1998 49.2643 26.6227 48.6006 27.1734 48.0514C27.724 47.5022 28.3887 47.0808 29.1204 46.8173C30.2594 46.4079 31.5054 46.4079 32.6444 46.8173C33.3819 47.0875 34.0519 47.5148 34.6079 48.0696C35.1639 48.6244 35.5926 49.2934 35.8644 50.0303C36.2244 51.1547 36.2279 52.3629 35.8744 53.4893V53.4893Z" fill="#F49E39"/>
<path d="M25.9404 49.9952C25.5318 51.1354 25.5318 52.3821 25.9404 53.5222C21.7997 53.5176 17.6587 53.5129 13.5174 53.5082C13.1906 53.5381 12.862 53.4741 12.5703 53.3238C12.2786 53.1734 12.0358 52.943 11.8705 52.6596C11.7051 52.3761 11.624 52.0513 11.6368 51.7234C11.6495 51.3955 11.7555 51.078 11.9424 50.8082C12.1042 50.5406 12.3378 50.3237 12.6168 50.1823C12.8958 50.0408 13.2088 49.9805 13.5204 50.0082H25.1854C25.4354 50.0072 25.6884 49.9992 25.9404 49.9952Z" fill="#A0A3DB"/>
<path d="M35.8734 53.4892C36.2302 52.3638 36.2302 51.1556 35.8734 50.0302C40.0904 50.0232 44.3084 50.0052 48.5254 50.0172C48.9752 50.0512 49.3946 50.2573 49.6965 50.5925C49.9984 50.9277 50.1595 51.3663 50.1464 51.8172C50.1255 52.2663 49.9348 52.6908 49.6129 53.0047C49.291 53.3186 48.8619 53.4986 48.4124 53.5082C45.7494 53.5182 43.0864 53.5142 40.4244 53.5082C38.9054 53.5072 37.3894 53.4962 35.8734 53.4892Z" fill="#A0A3DB"/>
<path d="M32.6504 46.8173C31.5114 46.4079 30.2654 46.4079 29.1264 46.8173C29.1264 45.5507 29.1284 44.286 29.1324 43.0233H32.6444C32.6464 44.288 32.6484 45.5527 32.6504 46.8173Z" fill="#A0A3DB"/>
<path d="M22.1174 30.5213C22.1327 29.278 22.148 28.0346 22.1634 26.7913C22.8484 25.5083 23.8374 25.1623 24.8854 25.8173C25.1854 26.0033 25.3064 26.3113 25.5244 26.5513C25.6569 27.217 25.6926 27.8984 25.6304 28.5743C25.6304 28.8983 25.7244 29.0103 26.0584 29.0093C29.2791 28.9993 32.4997 28.9993 35.7204 29.0093C36.0554 29.0093 36.1474 28.8973 36.1484 28.5733C36.0848 27.8977 36.1185 27.2164 36.2484 26.5503C37.0254 25.4503 37.9274 25.2053 38.8914 25.8263C39.2758 26.1229 39.5438 26.5452 39.6484 27.0193C39.6484 28.2647 39.6504 29.5097 39.6544 30.7543C39.6498 31.0038 39.5932 31.2495 39.4882 31.4758C39.3832 31.7021 39.2321 31.9039 39.0446 32.0685C38.8571 32.233 38.6373 32.3566 38.3993 32.4313C38.1613 32.506 37.9103 32.5302 37.6624 32.5023C33.1817 32.5023 28.7007 32.5023 24.2194 32.5023C23.9441 32.5448 23.6628 32.5238 23.3968 32.4412C23.1309 32.3585 22.8872 32.2162 22.6846 32.0252C22.4819 31.8342 22.3254 31.5994 22.2271 31.3388C22.1288 31.0782 22.0913 30.7986 22.1174 30.5213V30.5213Z" fill="white"/>
<path d="M32.4064 12.3153C32.6591 13.2473 32.7384 14.2177 32.6404 15.1783C32.6524 15.3903 32.6534 15.6043 32.6594 15.8173V19.4403C33.2234 18.9403 33.7154 18.4573 34.4594 18.5033C34.7893 18.5263 35.1074 18.635 35.3824 18.8186C35.6574 19.0022 35.8797 19.2544 36.0274 19.5503C36.1605 19.9365 36.1712 20.3543 36.0581 20.7467C35.945 21.1392 35.7136 21.4872 35.3954 21.7433C34.8804 22.2373 34.3954 22.7623 33.8954 23.2733C33.3554 23.8 32.8151 24.3263 32.2744 24.8523C32.1059 25.0553 31.8949 25.2187 31.6562 25.3311C31.4175 25.4435 31.1571 25.502 30.8933 25.5026C30.6295 25.5032 30.3688 25.4458 30.1296 25.3344C29.8905 25.2231 29.6787 25.0605 29.5094 24.8583C28.9274 24.2916 28.346 23.725 27.7654 23.1583C27.3064 22.6873 26.8654 22.1973 26.3854 21.7483C26.0637 21.4933 25.8297 21.1443 25.7159 20.7499C25.602 20.3555 25.6141 19.9355 25.7504 19.5483C26.5074 18.2903 27.8104 18.0763 29.1184 19.4483V15.8163C29.1244 15.0223 29.1394 14.2283 29.1314 13.4343C29.1188 13.0473 29.2013 12.6631 29.3714 12.3153C29.5341 12.0603 29.7584 11.8504 30.0236 11.705C30.2888 11.5596 30.5864 11.4834 30.8889 11.4834C31.1914 11.4834 31.489 11.5596 31.7542 11.705C32.0194 11.8504 32.2437 12.0603 32.4064 12.3153Z" fill="white"/>
<path d="M60.6024 27.0213C60.4302 25.6827 60.0386 24.3816 59.4434 23.1703C58.8383 21.8159 57.9884 20.585 56.9364 19.5393C55.108 17.5259 52.7005 16.1284 50.0454 15.5393C49.858 15.5071 49.686 15.4155 49.5549 15.2778C49.4237 15.1402 49.3404 14.964 49.3174 14.7753C49.0818 13.8377 48.7311 12.9328 48.2734 12.0813C47.694 10.7254 46.9136 9.46455 45.9584 8.34128C45.0655 7.1166 43.9931 6.03344 42.7774 5.12828C40.7925 3.54326 38.5093 2.37338 36.0634 1.68812C33.6175 1.00286 31.0588 0.816218 28.5394 1.13928C25.6339 1.46724 22.8489 2.48484 20.4164 4.10728C18.6362 5.22388 17.0768 6.65881 15.8164 8.34028C14.8615 9.46363 14.0815 10.7245 13.5024 12.0803C18.5517 12.0803 23.6011 12.0803 28.6504 12.0803C23.6011 12.0763 18.5514 12.0763 13.5014 12.0803C13.0391 12.9295 12.6879 13.8345 12.4564 14.7733C12.434 14.9621 12.351 15.1385 12.22 15.2762C12.0889 15.414 11.9168 15.5055 11.7294 15.5373C9.07576 16.1282 6.66983 17.5254 4.8414 19.5373C3.78562 20.5799 2.93398 21.8107 2.33038 23.1663C1.77484 24.2635 1.409 25.4469 1.24838 26.6663C0.960125 27.9302 0.920383 29.2382 1.13137 30.5173C1.22248 31.8946 1.57795 33.2414 2.17837 34.4843C2.68207 35.7891 3.4286 36.9866 4.37838 38.0133C5.36299 39.2554 6.592 40.2822 7.98938 41.0303C8.18938 41.1513 8.37738 41.2813 8.58038 41.3903C10.6508 42.4908 12.967 43.0472 15.3114 43.0073C19.9164 43.0023 24.5224 43.0153 29.1274 43.0213H32.6394C32.8724 43.0153 33.1054 43.0053 33.3394 43.0053C37.8874 43.0053 42.4394 43.0273 46.9824 42.9903C49.384 42.9621 51.7335 42.2856 53.7824 41.0323C55.1673 40.2658 56.3921 39.2406 57.3904 38.0123C58.3396 36.9855 59.0861 35.7885 59.5904 34.4843C60.151 33.3108 60.5009 32.0479 60.6244 30.7533H39.6554C39.6508 31.0027 39.5942 31.2484 39.4892 31.4747C39.3842 31.701 39.2332 31.9029 39.0457 32.0674C38.8581 32.232 38.6383 32.3556 38.4003 32.4303C38.1623 32.505 37.9113 32.5292 37.6634 32.5013C33.1827 32.5013 28.7017 32.5013 24.2204 32.5013C23.9446 32.5448 23.6625 32.5246 23.3957 32.4423C23.1288 32.3601 22.8844 32.2179 22.6809 32.0266C22.4775 31.8353 22.3205 31.6001 22.222 31.3388C22.1234 31.0776 22.086 30.7972 22.1124 30.5193C22.1277 29.2759 22.143 28.0326 22.1584 26.7893C21.976 26.696 21.7719 26.6532 21.5674 26.6653C21.7719 26.6532 21.9759 26.696 22.1584 26.7893C22.8434 25.5053 23.8324 25.1603 24.8804 25.8153C25.1804 26.0013 25.3014 26.3093 25.5194 26.5483C25.6519 27.214 25.6876 27.8954 25.6254 28.5713C25.6254 28.8953 25.7194 29.0073 26.0534 29.0063C29.274 28.9963 32.4947 28.9963 35.7154 29.0063C36.0504 29.0063 36.1424 28.8943 36.1434 28.5703C36.0798 27.8946 36.1134 27.2134 36.2434 26.5473C37.0204 25.4473 37.9224 25.2023 38.8864 25.8233C39.2709 26.1198 39.5389 26.5421 39.6434 27.0163C39.6434 28.2616 39.6454 29.5066 39.6494 30.7513H60.6244L60.7594 30.5163V27.4853C60.5674 27.3803 60.6964 27.1623 60.6024 27.0213ZM32.6584 15.8163V19.4393C33.2224 18.9393 33.7144 18.4563 34.4584 18.5023C34.7879 18.5256 35.1057 18.6344 35.3803 18.818C35.6549 19.0016 35.8769 19.2537 36.0244 19.5493C36.1575 19.9354 36.1682 20.3532 36.0551 20.7457C35.942 21.1381 35.7106 21.4862 35.3924 21.7423C34.8774 22.2363 34.3924 22.7613 33.8924 23.2723C33.3524 23.7989 32.8121 24.3253 32.2714 24.8513C32.1029 25.0543 31.8919 25.2177 31.6532 25.3301C31.4145 25.4425 31.1541 25.501 30.8903 25.5016C30.6265 25.5022 30.3658 25.4447 30.1266 25.3334C29.8875 25.2221 29.6757 25.0595 29.5064 24.8573C28.9244 24.2906 28.3431 23.7239 27.7624 23.1573L10.3784 23.1693L27.7624 23.1573C27.3034 22.6863 26.8624 22.1963 26.3824 21.7473C26.0607 21.4923 25.8267 21.1433 25.7129 20.7489C25.599 20.3545 25.6111 19.9345 25.7474 19.5473C26.5044 18.2893 27.8074 18.0753 29.1154 19.4473V15.8163C29.1214 15.0223 29.1364 14.2283 29.1284 13.4343C29.1159 13.0473 29.1982 12.6631 29.3684 12.3153C29.5311 12.0607 29.7554 11.8512 30.0204 11.7061C30.2854 11.561 30.5827 11.4849 30.8849 11.4849C31.187 11.4849 31.4843 11.561 31.7494 11.7061C32.0144 11.8512 32.2386 12.0607 32.4014 12.3153C32.6541 13.2472 32.7334 14.2177 32.6354 15.1783C32.6474 15.3903 32.6484 15.6043 32.6544 15.8173H49.0194L32.6584 15.8163Z" fill="#1F2489"/>
</svg>
