<svg width="94" height="94" viewBox="0 0 94 94" fill="none" xmlns="http://www.w3.org/2000/svg">
<path opacity="0.04" d="M83.0564 17.965C77.7643 11.4151 70.7765 6.44261 62.8541 3.58902C62.7042 3.52407 62.5492 3.47187 62.3905 3.43295C54.9447 0.817654 46.9534 0.1515 39.1774 1.49792C31.4013 2.84433 24.0992 6.1585 17.9661 11.125C11.8331 16.0914 7.07313 22.5449 4.1394 29.8711C1.20567 37.1973 0.195789 45.1525 1.20585 52.9793C1.21159 53.1513 1.23261 53.3225 1.2687 53.4907C2.40904 61.7248 5.7515 69.4982 10.9432 75.9902C16.1349 82.4823 22.9832 87.4521 30.765 90.3749C30.8217 90.4576 30.8621 90.5408 30.925 90.6185C31.2995 91.0797 31.8091 91.412 32.3822 91.5687C32.9552 91.7255 33.5629 91.6989 34.1201 91.4926C41.2957 93.5972 48.8749 93.9294 56.2072 92.4608C63.5396 90.9921 70.4061 87.7663 76.2175 83.0602C82.029 78.3542 86.6119 72.3084 89.573 65.4417C92.5341 58.575 93.7849 51.0924 93.2181 43.6359C93.5349 43.1336 93.6868 42.5449 93.6524 41.952C93.6181 41.3592 93.3993 40.7919 93.0267 40.3295C92.9638 40.2518 92.8897 40.1921 92.8251 40.1235C91.6064 31.9974 88.2333 24.3461 83.0564 17.965ZM17.45 74.7696L27.4915 66.6382C31.4538 71.2413 35.9745 75.3325 40.9491 78.8172L33.1193 85.1576C27.1503 82.9787 21.7811 79.4192 17.45 74.7696ZM7.1448 54.0621L15.2186 47.5241C17.535 52.7333 20.4468 57.6567 23.8957 62.1962L13.8534 70.3282C10.446 65.4669 8.15491 59.9127 7.14402 54.0628L7.1448 54.0621ZM76.7307 19.4112L66.69 27.542C62.9665 23.225 58.7561 19.3533 54.1427 16.004L62.2157 9.46661C67.7276 11.6708 72.6838 15.0667 76.7293 19.411L76.7307 19.4112ZM62.2393 31.1461L47.5132 43.0711L36.9009 29.9661L49.455 19.8001C54.1867 23.0159 58.4832 26.8294 62.2379 31.146L62.2393 31.1461ZM33.3033 25.5217L24.0177 14.0549C29.2447 11.6494 36.5743 12.7796 44.2037 16.6935L33.3033 25.5217ZM19.5761 17.6529L28.8611 29.1189L17.957 37.9489C15.7165 29.6699 16.1356 22.2662 19.5747 17.6528L19.5761 17.6529ZM32.4596 33.5627L43.0718 46.6677L28.3456 58.5927C24.9051 54.0209 22.0695 49.0239 19.9094 43.7256L32.4596 33.5627ZM31.943 63.0334L46.6676 51.1097L57.9538 65.047L45.6656 74.9978C40.5596 71.6641 35.9411 67.6377 31.9422 63.034L31.943 63.0334ZM61.5518 69.4886L70.1621 80.1215C65.178 82.4153 58.2778 81.4945 51.0339 78.0058L61.5518 69.4886ZM74.6056 76.5258L65.994 65.8914L76.5111 57.3748C78.4138 65.1875 77.8835 72.1265 74.6048 76.5265L74.6056 76.5258ZM62.3968 61.4492L51.1105 47.5119L65.8359 35.5875C69.5075 40.4562 72.4856 45.8109 74.685 51.4984L62.3968 61.4492ZM70.2866 31.9834L80.3273 23.8526C83.9756 29.0551 86.3413 35.047 87.2312 41.3386L79.4015 47.679C77.0264 42.0892 73.9642 36.8169 70.2858 31.984L70.2866 31.9834ZM55.6111 7.4521L49.083 12.7384C45.3069 10.5131 41.2237 8.85613 36.9647 7.82082C43.0691 6.2609 49.4519 6.136 55.6128 7.45586L55.6111 7.4521ZM10.7834 29.022C10.9106 33.4032 11.6825 37.7417 13.074 41.898L6.54595 47.1842C6.53837 40.8853 7.98931 34.6702 10.7851 29.0257L10.7834 29.022ZM39.9384 86.9856L46.0965 81.9989C49.5855 83.9511 53.3257 85.4155 57.2127 86.3511C51.5672 87.7974 45.677 88.0151 39.9401 86.9893L39.9384 86.9856ZM83.3932 65.1506C83.2862 61.154 82.6315 57.191 81.4473 53.3723L87.6054 48.3856C87.4178 54.212 85.982 59.9303 83.395 65.1543L83.3932 65.1506Z" fill="#242993"/>
</svg>
