<svg width="54" height="46" viewBox="0 0 54 46" fill="none" xmlns="http://www.w3.org/2000/svg">
<path d="M0.972015 32.693C0.980682 29.611 0.988729 26.5287 0.996063 23.446C0.996063 21.977 0.979085 20.507 0.969085 19.038C0.978085 16.399 1.05607 13.757 0.975067 11.12C0.944889 10.6514 1.01531 10.1819 1.18173 9.74283C1.34815 9.30379 1.60673 8.90547 1.93991 8.57465C2.2731 8.24384 2.67316 7.98819 3.11337 7.8249C3.55359 7.66162 4.02371 7.59448 4.49203 7.628C13.579 7.672 22.666 7.64699 31.753 7.64599C32.0389 7.62224 32.3267 7.65625 32.5991 7.74599C32.7343 7.88499 32.8299 8.05762 32.8761 8.24599C32.8021 8.91499 32.311 8.88299 31.825 8.88199C22.7544 8.88199 13.6837 8.88199 4.61301 8.88199C4.3068 8.88046 4.001 8.90219 3.69809 8.947C3.43493 8.99226 3.18562 9.09741 2.96957 9.25433C2.75353 9.41125 2.57643 9.61574 2.452 9.852C2.39215 9.91937 2.34874 9.99969 2.32516 10.0867C2.30159 10.1736 2.2985 10.2649 2.31613 10.3533C2.33377 10.4416 2.3717 10.5247 2.42685 10.596C2.482 10.6672 2.55288 10.7248 2.634 10.764C10.1113 16.4833 17.578 22.2167 25.034 27.964C25.1209 28.0555 25.2253 28.1286 25.3409 28.179C25.4566 28.2295 25.5812 28.2562 25.7074 28.2576C25.8335 28.259 25.9587 28.235 26.0754 28.1872C26.1922 28.1393 26.2982 28.0685 26.3871 27.979C30.2224 25.0097 34.0677 22.054 37.9231 19.112C38.2311 18.877 38.2751 18.773 37.9491 18.501C36.9102 17.6307 36.0815 16.5367 35.525 15.301C34.5152 13.0794 34.3876 10.5571 35.1681 8.24499C35.545 7.31637 36.0362 6.43828 36.6301 5.631C38.0092 3.88005 39.9439 2.65148 42.1151 2.14799C43.8602 1.79946 45.6677 1.94211 47.3365 2.56005C49.0053 3.17799 50.4698 4.24698 51.567 5.64799C52.8115 7.36896 53.4883 9.43524 53.503 11.559C53.4263 12.7769 53.1702 13.9769 52.743 15.12C52.0499 16.571 51.0439 17.8504 49.7971 18.866C48.3682 19.9672 46.6503 20.6298 44.852 20.7734C43.0538 20.917 41.2526 20.5354 39.6671 19.675C39.3741 19.528 39.217 19.663 39.023 19.813C37.206 21.213 35.395 22.613 33.565 23.999C33.213 24.265 33.165 24.386 33.551 24.68C38.609 28.5467 43.6604 32.422 48.705 36.306C48.841 36.406 48.953 36.577 49.205 36.569V35.9C49.205 31.2913 49.205 26.6827 49.205 22.074C49.205 21.613 49.241 21.202 49.796 21.088L50.0591 21.124C50.1997 21.2077 50.3116 21.3319 50.3803 21.4804C50.4491 21.6289 50.4713 21.7947 50.4441 21.956C50.4441 23.57 50.4561 25.185 50.4651 26.799V35.651C50.4561 36.241 50.414 36.832 50.446 37.42C50.5171 38.2984 50.2845 39.1746 49.7871 39.902C49.4131 40.2937 48.9581 40.5989 48.4539 40.7965C47.9498 40.9941 47.4085 41.0793 46.868 41.046C38.8353 41.0267 30.802 41.0237 22.768 41.037C22.401 41.037 22.0331 41.057 21.6681 41.068L11.7101 41.062C9.32605 41.054 6.94305 41.02 4.55905 41.05C4.01966 41.0833 3.47945 40.9981 2.97653 40.8003C2.47362 40.6024 2.02019 40.2969 1.64804 39.905C1.16018 39.2448 0.922089 38.4331 0.976043 37.614C0.974043 35.972 0.972682 34.3317 0.972015 32.693ZM25.6941 39.793H41.973C43.693 39.793 45.413 39.793 47.133 39.793C47.5027 39.8217 47.8729 39.7446 48.2003 39.5707C48.5277 39.3968 48.7988 39.1333 48.982 38.811C49.0404 38.7427 49.0823 38.662 49.1046 38.5749C49.1268 38.4879 49.1288 38.3969 49.1103 38.309C49.0919 38.2211 49.0535 38.1386 48.9981 38.0679C48.9428 37.9971 48.8719 37.9401 48.791 37.901C43.3583 33.753 37.9371 29.5897 32.5271 25.411C32.4732 25.3537 32.408 25.3082 32.3355 25.2776C32.2631 25.247 32.185 25.2318 32.1064 25.2332C32.0278 25.2345 31.9504 25.2522 31.879 25.2853C31.8076 25.3183 31.7439 25.3659 31.692 25.425C30.1447 26.635 28.5873 27.8323 27.02 29.017C26.668 29.3572 26.1971 29.5464 25.7076 29.5441C25.2181 29.5419 24.7488 29.3484 24.4 29.005C22.854 27.826 21.3001 26.653 19.7811 25.444C19.7215 25.3784 19.6485 25.3262 19.5671 25.2911C19.4857 25.2559 19.3978 25.2385 19.3092 25.2401C19.2205 25.2418 19.1332 25.2623 19.0532 25.3004C18.9731 25.3385 18.9022 25.3932 18.8451 25.461C17.8561 26.255 16.838 27.014 15.832 27.787C11.432 31.165 7.03205 34.5397 2.63205 37.911C2.55171 37.9517 2.48189 38.0103 2.42795 38.0824C2.374 38.1545 2.33737 38.2381 2.32101 38.3267C2.30466 38.4152 2.30895 38.5063 2.33359 38.5929C2.35822 38.6796 2.40248 38.7593 2.46298 38.826C2.66714 39.1589 2.96191 39.4268 3.31271 39.5984C3.66352 39.77 4.05594 39.8382 4.44406 39.795C11.5261 39.7917 18.6094 39.7923 25.6941 39.797V39.793ZM2.24399 36.655C2.43599 36.517 2.55 36.44 2.66 36.355C7.738 32.455 12.8177 28.5577 17.899 24.663C18.314 24.346 18.175 24.224 17.856 23.979C12.8054 20.1123 7.75808 16.24 2.71408 12.362C2.58008 12.262 2.47199 12.082 2.24399 12.11V36.655ZM35.9121 11.339C35.9014 13.4997 36.7482 15.5765 38.2667 17.1137C39.7852 18.6509 41.8514 19.5231 44.0121 19.539C45.0846 19.5512 46.1489 19.3508 47.1435 18.9494C48.1382 18.5481 49.0435 17.9538 49.8072 17.2007C50.571 16.4476 51.178 15.5508 51.5934 14.5618C52.0087 13.5729 52.2241 12.5116 52.227 11.439C52.2432 10.3609 52.0444 9.29032 51.6422 8.28992C51.2399 7.28951 50.6423 6.3793 49.8842 5.6125C49.1262 4.8457 48.223 4.23768 47.2273 3.82397C46.2315 3.41025 45.1633 3.19915 44.0851 3.20299C43.0138 3.20023 41.9525 3.40866 40.9619 3.81637C39.9713 4.22407 39.0707 4.82305 38.3117 5.57905C37.5528 6.33505 36.9503 7.23324 36.5387 8.22227C36.1271 9.21129 35.9145 10.2717 35.9131 11.343L35.9121 11.339Z" fill="#1F2489"/>
<path d="M32.8761 8.24599L35.1691 8.23999C34.3887 10.5521 34.5163 13.0744 35.5262 15.296C36.0826 16.5318 36.9112 17.6257 37.9501 18.496C38.2761 18.767 38.2311 18.871 37.9241 19.107C34.0708 22.0523 30.2254 25.008 26.3881 27.974C26.2992 28.0635 26.1933 28.1343 26.0766 28.1822C25.9598 28.23 25.8347 28.254 25.7085 28.2526C25.5824 28.2512 25.4577 28.2245 25.3421 28.174C25.2264 28.1236 25.1221 28.0505 25.0352 27.959C17.5785 22.2137 10.1118 16.4803 2.63517 10.759C2.55405 10.7197 2.48317 10.6622 2.42802 10.591C2.37287 10.5197 2.33494 10.4366 2.3173 10.3483C2.29967 10.2599 2.30276 10.1686 2.32633 10.0817C2.34991 9.99469 2.39332 9.91436 2.45317 9.84699C2.5775 9.61086 2.75439 9.40644 2.97026 9.24953C3.18612 9.09261 3.43518 8.9874 3.69816 8.94199C4.00141 8.89717 4.30764 8.87544 4.61418 8.87699C13.6848 8.87699 22.7555 8.87699 31.8262 8.87699C32.3112 8.88199 32.8011 8.91399 32.8761 8.24599Z" fill="#AEB2F3"/>
<path d="M25.6941 39.798C18.6094 39.798 11.5247 39.798 4.44003 39.798C4.05191 39.8412 3.65949 39.773 3.30868 39.6014C2.95788 39.4298 2.66324 39.1619 2.45907 38.829C2.39857 38.7623 2.35419 38.6826 2.32956 38.596C2.30493 38.5093 2.30063 38.4182 2.31699 38.3297C2.33334 38.2411 2.36997 38.1575 2.42392 38.0854C2.47786 38.0134 2.54769 37.9547 2.62802 37.914C7.04002 34.5533 11.4401 31.1787 15.8281 27.79C16.8341 27.017 17.852 26.259 18.841 25.464C18.8982 25.3962 18.9692 25.3415 19.0493 25.3034C19.1293 25.2653 19.2165 25.2448 19.3051 25.2432C19.3938 25.2415 19.4818 25.2589 19.5632 25.2941C19.6446 25.3292 19.7175 25.3814 19.7771 25.447C21.2991 26.656 22.8501 27.828 24.3961 29.008C24.7449 29.3514 25.2141 29.5449 25.7036 29.5472C26.1931 29.5494 26.6641 29.3602 27.0161 29.02C28.5807 27.832 30.1381 26.6347 31.6881 25.428C31.74 25.3689 31.8036 25.3213 31.875 25.2883C31.9463 25.2552 32.0238 25.2375 32.1024 25.2362C32.181 25.2348 32.2591 25.25 32.3315 25.2806C32.4039 25.3112 32.4692 25.3567 32.523 25.414C37.9344 29.59 43.3557 33.7533 48.7871 37.904C48.868 37.9431 48.9388 38.0002 48.9941 38.0709C49.0495 38.1416 49.0878 38.2241 49.1063 38.312C49.1247 38.3999 49.1228 38.4909 49.1006 38.5779C49.0783 38.665 49.0364 38.7457 48.978 38.814C48.7947 39.1362 48.5235 39.3997 48.1961 39.5735C47.8687 39.7474 47.4986 39.8246 47.129 39.796C45.409 39.796 43.6891 39.796 41.9691 39.796L25.6941 39.798ZM37.883 33.185C37.269 33.185 36.6561 33.185 36.0421 33.185C35.9399 33.1678 35.835 33.1752 35.7363 33.2065C35.6375 33.2379 35.5477 33.2923 35.4742 33.3654C35.4007 33.4384 35.3456 33.5279 35.3136 33.6264C35.2815 33.725 35.2735 33.8297 35.29 33.932C35.2947 34.75 35.2947 35.568 35.29 36.386C35.29 36.9 35.5441 37.128 36.0481 37.126C37.2551 37.126 38.4611 37.119 39.6681 37.126C40.2021 37.126 40.468 36.888 40.461 36.35C40.461 35.55 40.461 34.75 40.461 33.957C40.4773 33.8493 40.4677 33.7392 40.4328 33.6359C40.398 33.5327 40.339 33.4393 40.2607 33.3635C40.1824 33.2876 40.0872 33.2316 39.9829 33.2C39.8786 33.1685 39.7683 33.1623 39.6611 33.182C39.0701 33.192 38.476 33.185 37.883 33.185ZM26.5641 37.127C28.4641 37.127 30.371 37.122 32.274 37.127C32.746 37.127 33.197 37.067 33.18 36.487C33.164 35.959 32.735 35.887 32.28 35.887C28.4733 35.893 24.6667 35.893 20.8601 35.887C20.3881 35.887 19.9421 35.956 19.9601 36.535C19.972 37.079 20.409 37.126 20.853 37.124C22.758 37.123 24.662 37.128 26.565 37.128L26.5641 37.127ZM30.864 33.407C30.333 33.407 29.801 33.407 29.27 33.407C28.87 33.407 28.57 33.568 28.559 33.992C28.5525 34.08 28.5654 34.1685 28.5969 34.2509C28.6284 34.3334 28.6777 34.4079 28.7413 34.4691C28.8049 34.5304 28.8812 34.5768 28.9648 34.6051C29.0484 34.6334 29.1373 34.643 29.2251 34.633C30.3284 34.6463 31.4321 34.6463 32.5361 34.633C32.6242 34.6423 32.7132 34.6318 32.7967 34.6022C32.8802 34.5726 32.956 34.5247 33.0185 34.462C33.0811 34.3992 33.1287 34.3233 33.158 34.2397C33.1874 34.1561 33.1977 34.0671 33.1881 33.979C33.1865 33.8961 33.1673 33.8145 33.1318 33.7396C33.0963 33.6646 33.0453 33.5981 32.9821 33.5444C32.919 33.4907 32.8451 33.451 32.7655 33.428C32.6858 33.405 32.6021 33.3992 32.52 33.411C31.967 33.415 31.416 33.409 30.864 33.408V33.407Z" fill="#5D62C1"/>
<path d="M2.24512 36.66V12.116C2.47412 12.088 2.58109 12.265 2.71509 12.368C7.76309 16.2393 12.8104 20.1117 17.8571 23.985C18.1761 24.229 18.315 24.351 17.9 24.669C12.8127 28.5563 7.73301 32.4537 2.66101 36.361C2.55101 36.444 2.43512 36.522 2.24512 36.66Z" fill="#1F2489"/>
<path d="M35.9131 11.344C35.9154 10.2729 36.1288 9.21279 36.5411 8.22425C36.9534 7.2357 37.5566 6.33812 38.316 5.58279C39.0754 4.82747 39.9763 4.22922 40.967 3.82225C41.9578 3.41528 43.019 3.20757 44.0901 3.21099C45.1683 3.20714 46.2364 3.41825 47.232 3.83198C48.2277 4.2457 49.1309 4.85374 49.8889 5.62056C50.6469 6.38737 51.2445 7.29758 51.6466 8.29798C52.0487 9.29838 52.2474 10.3689 52.2311 11.447C52.2281 12.5195 52.0128 13.5808 51.5975 14.5696C51.1823 15.5585 50.5753 16.4553 49.8116 17.2083C49.048 17.9614 48.1429 18.5557 47.1483 18.9571C46.1538 19.3585 45.0895 19.559 44.0171 19.547C41.8552 19.5322 39.7875 18.66 38.2681 17.122C36.7486 15.584 35.9016 13.5059 35.9131 11.344ZM40.2081 14.544C40.1923 14.6559 40.2084 14.77 40.2546 14.8732C40.3009 14.9763 40.3753 15.0643 40.4694 15.127C40.5634 15.1897 40.6732 15.2246 40.7862 15.2276C40.8992 15.2306 41.0109 15.2016 41.1081 15.144C43.5748 14.1067 46.0371 13.0593 48.4951 12.002C48.6342 11.9605 48.7556 11.8742 48.8404 11.7564C48.9253 11.6386 48.9688 11.4961 48.9641 11.351C48.9573 11.217 48.9086 11.0886 48.8251 10.9836C48.7415 10.8787 48.6271 10.8026 48.498 10.766C46.038 9.71399 43.5774 8.66332 41.1161 7.61399C41.0003 7.54635 40.8652 7.51945 40.7323 7.53758C40.5994 7.55571 40.4765 7.61781 40.383 7.71399C40.2893 7.81046 40.2278 7.93364 40.207 8.06654C40.1862 8.19944 40.2073 8.33551 40.2671 8.45599C40.3658 8.76765 40.4944 9.06905 40.6511 9.35599C41.0624 9.95005 41.2828 10.6554 41.2828 11.378C41.2828 12.1006 41.0624 12.8059 40.6511 13.4C40.4294 13.7476 40.2788 14.1358 40.2081 14.542V14.544Z" fill="#F49E39"/>
<path d="M49.7912 21.083C49.2352 21.197 49.1991 21.608 49.2001 22.069C49.2054 26.6776 49.2054 31.2863 49.2001 35.895V36.564C48.9511 36.571 48.8391 36.405 48.7001 36.301C43.6488 32.4256 38.5975 28.5503 33.5462 24.675C33.1602 24.38 33.2081 24.259 33.5601 23.994C35.3901 22.612 37.2011 21.207 39.0181 19.808C39.2131 19.658 39.3691 19.523 39.6621 19.67C41.2477 20.5304 43.0489 20.912 44.8472 20.7683C46.6454 20.6247 48.3632 19.9621 49.7921 18.861C49.7941 19.5996 49.7938 20.3403 49.7912 21.083Z" fill="#1F2489"/>
<path d="M34.9041 0.230997C34.9739 0.226602 35.0439 0.236921 35.1095 0.261286C35.1751 0.285651 35.2349 0.32351 35.2849 0.372431C35.335 0.421352 35.3742 0.480245 35.4 0.545282C35.4259 0.61032 35.4379 0.680061 35.4351 0.749994C35.4442 0.821329 35.4376 0.893798 35.4157 0.962305C35.3938 1.03081 35.3572 1.09369 35.3084 1.14651C35.2596 1.19933 35.1998 1.24079 35.1332 1.268C35.0666 1.29521 34.9949 1.3075 34.9231 1.304C34.8514 1.31067 34.7791 1.30205 34.711 1.27871C34.6428 1.25537 34.5804 1.21785 34.5279 1.1686C34.4753 1.11936 34.4337 1.05952 34.406 0.993052C34.3783 0.926579 34.3651 0.854974 34.3671 0.782984C34.3604 0.71012 34.3696 0.636681 34.3941 0.567713C34.4185 0.498744 34.4575 0.435892 34.5086 0.383448C34.5596 0.331004 34.6213 0.290226 34.6896 0.26391C34.7579 0.237595 34.8311 0.226366 34.9041 0.230997Z" fill="#FCFCFE"/>
<path d="M21.6592 44.849C21.656 44.9197 21.6381 44.9889 21.6069 45.0525C21.5758 45.116 21.5319 45.1724 21.4779 45.2182C21.424 45.264 21.3611 45.2982 21.2933 45.3186C21.2256 45.339 21.1544 45.3453 21.0841 45.337C21.0122 45.3414 20.9402 45.3297 20.8733 45.3029C20.8064 45.276 20.7463 45.2346 20.6974 45.1817C20.6485 45.1288 20.612 45.0656 20.5905 44.9968C20.569 44.928 20.5631 44.8553 20.5731 44.784C20.5717 44.7117 20.5858 44.6399 20.6143 44.5735C20.6428 44.5071 20.6851 44.4475 20.7385 44.3987C20.7919 44.35 20.8551 44.3132 20.9238 44.2908C20.9926 44.2684 21.0652 44.261 21.1371 44.269C21.2099 44.2715 21.2815 44.2886 21.3475 44.3194C21.4136 44.3502 21.4727 44.3939 21.5214 44.4481C21.5701 44.5022 21.6074 44.5656 21.6311 44.6345C21.6548 44.7034 21.6643 44.7763 21.6592 44.849Z" fill="#FCFCFE"/>
<path d="M37.8851 33.185C38.4781 33.185 39.0711 33.192 39.6641 33.185C39.7713 33.1653 39.8816 33.1715 39.9859 33.203C40.0902 33.2346 40.1855 33.2906 40.2637 33.3664C40.342 33.4423 40.401 33.5357 40.4359 33.6389C40.4707 33.7422 40.4803 33.8522 40.464 33.96C40.464 34.76 40.464 35.56 40.464 36.353C40.464 36.891 40.2051 37.133 39.6711 37.129C38.4641 37.121 37.2581 37.123 36.0511 37.129C35.5511 37.129 35.2911 36.903 35.2941 36.389C35.2988 35.571 35.2988 34.753 35.2941 33.935C35.2776 33.8327 35.2857 33.7279 35.3177 33.6294C35.3497 33.5309 35.4047 33.4414 35.4782 33.3683C35.5517 33.2953 35.6417 33.2409 35.7404 33.2095C35.8392 33.1781 35.9439 33.1708 36.0461 33.188C36.6561 33.189 37.2701 33.185 37.8851 33.185Z" fill="white"/>
<path d="M26.5651 37.127C24.6651 37.127 22.7581 37.127 20.8551 37.127C20.4111 37.127 19.9741 37.081 19.9611 36.538C19.9481 35.96 20.3931 35.89 20.8611 35.89C24.6678 35.8953 28.4745 35.8953 32.2812 35.89C32.7322 35.89 33.1611 35.961 33.1811 36.49C33.1981 37.069 32.7472 37.132 32.2752 37.13C30.3722 37.122 28.4691 37.127 26.5651 37.127Z" fill="white"/>
<path d="M30.864 33.409C31.416 33.409 31.964 33.409 32.52 33.409C32.6021 33.3972 32.6857 33.403 32.7653 33.426C32.845 33.449 32.919 33.4887 32.9821 33.5424C33.0453 33.5961 33.0963 33.6626 33.1318 33.7376C33.1673 33.8125 33.1865 33.8941 33.1881 33.977C33.1977 34.0651 33.1874 34.1542 33.158 34.2377C33.1287 34.3213 33.0811 34.3973 33.0185 34.46C32.956 34.5227 32.8802 34.5706 32.7967 34.6002C32.7132 34.6298 32.6241 34.6403 32.536 34.631C31.4326 34.647 30.3291 34.647 29.2251 34.631C29.1373 34.641 29.0484 34.6314 28.9648 34.6031C28.8812 34.5748 28.8049 34.5284 28.7413 34.4671C28.6777 34.4059 28.6284 34.3314 28.5969 34.2489C28.5654 34.1665 28.5525 34.0781 28.559 33.99C28.573 33.567 28.866 33.402 29.27 33.405C29.801 33.411 30.333 33.408 30.864 33.409Z" fill="white"/>
<path d="M40.2081 14.541C40.2795 14.135 40.4307 13.7472 40.653 13.4C41.0644 12.806 41.2848 12.1006 41.2848 11.378C41.2848 10.6555 41.0644 9.95009 40.653 9.35603C40.4964 9.06906 40.3679 8.76767 40.2691 8.45602C40.2092 8.33558 40.188 8.19947 40.2088 8.06654C40.2296 7.9336 40.2912 7.81042 40.3851 7.71402C40.4785 7.61784 40.6015 7.55574 40.7343 7.53761C40.8672 7.51949 41.0023 7.54639 41.1181 7.61402C43.5781 8.66602 46.0384 9.71669 48.4991 10.766C48.6282 10.8026 48.7424 10.8787 48.826 10.9837C48.9096 11.0886 48.9582 11.217 48.9651 11.351C48.9698 11.496 48.9265 11.6384 48.8419 11.7562C48.7572 11.8739 48.636 11.9604 48.497 12.002C46.037 13.0547 43.5747 14.102 41.1101 15.144C41.0126 15.2025 40.9005 15.232 40.7868 15.2293C40.6732 15.2265 40.5626 15.1914 40.4681 15.1282C40.3736 15.0651 40.2989 14.9763 40.2529 14.8723C40.2069 14.7684 40.1913 14.6535 40.2081 14.541Z" fill="white"/>
</svg>
