<svg width="58" height="41" viewBox="0 0 58 41" fill="none" xmlns="http://www.w3.org/2000/svg">
<path d="M38.314 27.4687C38.304 25.1687 38.289 22.8617 38.287 20.5577C38.287 19.2967 38.305 18.0357 38.315 16.7747C38.7997 16.7644 39.2775 16.6575 39.7203 16.4602C40.1632 16.2629 40.5622 15.9792 40.894 15.6257C41.3526 15.2077 41.81 14.788 42.266 14.3667C42.343 14.2875 42.4476 14.2409 42.558 14.2367C43.1752 14.629 43.7343 15.106 44.219 15.6537C45.698 16.9317 47.099 18.2987 48.548 19.6127C50.726 21.5877 52.934 23.5306 55.091 25.5276C55.6895 25.976 56.2273 26.5 56.691 27.0867C56.5618 27.2289 56.4004 27.3383 56.2204 27.4056C56.0404 27.4729 55.8469 27.4963 55.656 27.4737C49.8753 27.4677 44.0947 27.466 38.314 27.4687Z" fill="#5D62C1"/>
<path d="M9.97306 9.49868H15.373C15.5381 9.48937 15.7037 9.49438 15.868 9.51367C16.0728 9.53163 16.2635 9.6255 16.4026 9.77685C16.5418 9.9282 16.6193 10.1261 16.62 10.3317C16.6362 10.5274 16.5793 10.7222 16.4601 10.8783C16.341 11.0344 16.1681 11.1407 15.975 11.1767C15.7781 11.2201 15.5765 11.2379 15.375 11.2297C11.775 11.2297 8.17499 11.2297 4.57499 11.2297C4.44599 11.2297 4.317 11.2377 4.189 11.2297C4.07366 11.2321 3.95896 11.2115 3.8516 11.1693C3.74424 11.127 3.64642 11.0639 3.56364 10.9835C3.48086 10.9032 3.41484 10.8072 3.36942 10.7011C3.32401 10.595 3.30002 10.4811 3.29899 10.3657C3.29783 10.2453 3.32212 10.126 3.37016 10.0156C3.41819 9.90515 3.48892 9.80611 3.5778 9.72488C3.66667 9.64364 3.77163 9.58203 3.8859 9.54409C4.00018 9.50615 4.12119 9.49271 4.24101 9.50466C6.15301 9.49266 8.06306 9.49968 9.97306 9.49868Z" fill="#F49E39"/>
<path d="M47.829 38.2807C49.6476 38.2807 51.466 38.2807 53.284 38.2807C53.449 38.2692 53.6149 38.2773 53.778 38.3047C53.9614 38.3369 54.1285 38.4303 54.2522 38.5695C54.3758 38.7088 54.4487 38.8858 54.459 39.0717C54.4825 39.2565 54.4409 39.4437 54.3412 39.601C54.2416 39.7584 54.0901 39.8761 53.913 39.9337C53.7231 40.0031 53.5208 40.0324 53.319 40.0197H42.298C42.1879 40.0245 42.0776 40.0215 41.968 40.0107C41.7372 39.9885 41.5235 39.8795 41.37 39.7058C41.2165 39.532 41.1346 39.3065 41.141 39.0747C41.1589 38.8521 41.2629 38.6451 41.431 38.498C41.5991 38.3508 41.8179 38.275 42.041 38.2867C43.179 38.2717 44.318 38.2817 45.457 38.2807H47.829Z" fill="#F49E39"/>
<path d="M11.354 7.2997C9.94202 7.2997 8.52908 7.2997 7.11708 7.2997C6.47008 7.2997 6.13301 6.99968 6.14101 6.44768C6.14801 5.92068 6.47308 5.62669 7.09108 5.62569C9.93441 5.62103 12.7777 5.62103 15.621 5.62569C16.238 5.62569 16.63 5.97071 16.621 6.47671C16.612 6.98271 16.221 7.2977 15.593 7.2997C14.184 7.3027 12.771 7.2997 11.354 7.2997Z" fill="#F49E39"/>
<path d="M46.399 36.0797C44.999 36.0797 43.606 36.0797 42.209 36.0797C41.536 36.0797 41.137 35.7597 41.14 35.2397C41.143 34.7197 41.54 34.4087 42.217 34.4077C45.0103 34.4077 47.8037 34.4077 50.597 34.4077C51.257 34.4077 51.606 34.6917 51.618 35.2197C51.631 35.7847 51.285 36.0787 50.589 36.0797C49.193 36.0817 47.796 36.0797 46.399 36.0797Z" fill="#F49E39"/>
<path d="M13.0701 3.42275C12.2271 3.42275 11.383 3.42875 10.54 3.42275C10.4169 3.4367 10.2922 3.4253 10.1737 3.38927C10.0552 3.35325 9.94535 3.29334 9.85083 3.21325C9.75631 3.13316 9.67914 3.03459 9.62415 2.92358C9.56915 2.81256 9.53745 2.69146 9.53101 2.56774C9.53397 2.44293 9.56297 2.32009 9.61597 2.20705C9.66897 2.09402 9.74482 1.99326 9.83887 1.91116C9.93292 1.82905 10.0431 1.76741 10.1622 1.73016C10.2814 1.6929 10.4069 1.68085 10.531 1.69476C12.2177 1.68476 13.9047 1.68476 15.592 1.69476C16.231 1.69476 16.6461 2.06974 16.6281 2.58474C16.6101 3.09974 16.228 3.41675 15.603 3.42275C14.757 3.42875 13.9141 3.42275 13.0701 3.42275Z" fill="#F49E39"/>
<path d="M44.6891 32.2058C43.8641 32.2058 43.038 32.2058 42.213 32.2058C41.547 32.2058 41.1431 31.8798 41.1391 31.3628C41.1351 30.8458 41.5391 30.4737 42.1801 30.4707C43.8674 30.4627 45.5547 30.4627 47.242 30.4707C47.3658 30.4586 47.4908 30.4721 47.6092 30.5105C47.7275 30.5488 47.8367 30.6111 47.9298 30.6934C48.023 30.7758 48.0982 30.8765 48.1507 30.9893C48.2032 31.102 48.232 31.2244 48.2351 31.3487C48.2276 31.4727 48.1949 31.5939 48.1391 31.7049C48.0833 31.8158 48.0056 31.9143 47.9106 31.9943C47.8155 32.0743 47.7052 32.1341 47.5863 32.1701C47.4675 32.2061 47.3425 32.2175 47.2191 32.2038C46.3761 32.2128 45.5331 32.2058 44.6891 32.2058Z" fill="#F49E39"/>
<path d="M36.87 39.2807C35.918 38.3997 34.933 37.5557 33.97 36.6807C31.5846 34.5221 29.203 32.3594 26.825 30.1927C25.8 29.2567 24.798 28.2928 23.785 27.3438C23.1388 27.815 22.5364 28.3434 21.985 28.9227C21.6872 29.2475 21.3282 29.5101 20.9286 29.6956C20.529 29.8811 20.0966 29.9858 19.6564 30.0037C19.2162 30.0215 18.7768 29.9522 18.3635 29.7996C17.9502 29.6471 17.5711 29.4143 17.248 29.1147C16.518 28.5097 15.82 27.8657 15.108 27.2397C14.919 27.7917 14.4241 28.0837 14.0341 28.4517C12.9571 29.4667 11.844 30.4417 10.746 31.4327L5.50305 36.1718C5.49405 36.2058 5.48698 36.2397 5.47998 36.2717C5.35487 36.3008 5.24215 36.3687 5.15796 36.4657C4.50696 37.0487 3.81396 37.5907 3.20996 38.2188C2.4308 38.847 1.71537 39.5504 1.07397 40.3187C1.18178 40.442 1.31572 40.5396 1.46606 40.6045C1.6164 40.6694 1.77937 40.6998 1.94299 40.6937L6.38098 40.6817C6.39913 40.6853 6.41756 40.6877 6.43604 40.6887L36.968 40.6937C37.1315 40.708 37.2959 40.6809 37.4462 40.6151C37.5964 40.5492 37.7277 40.4466 37.828 40.3167C37.5817 39.9104 37.2558 39.558 36.87 39.2807Z" fill="#5D62C1"/>
<path d="M36.918 14.2347C35.966 14.2347 35.018 14.2267 34.063 14.2217L24.358 14.2147H19.4459C19.1899 14.2207 18.934 14.2327 18.678 14.2327L6.37793 14.2468C6.29538 14.2874 6.21593 14.3338 6.14001 14.3857C6.21593 14.3338 6.29538 14.2874 6.37793 14.2468L1.87793 14.2347C1.72387 14.2246 1.5698 14.2536 1.42993 14.319C1.29007 14.3844 1.16903 14.4841 1.078 14.6088C1.105 14.8088 1.268 14.9167 1.401 15.0347C2.76367 16.2427 4.13031 17.4481 5.50098 18.6508C5.50992 18.6781 5.51633 18.7062 5.52002 18.7347C6.03593 19.0786 6.51008 19.4813 6.93298 19.9348C9.52198 22.2208 12.084 24.5348 14.656 26.8458C14.805 26.9798 14.956 27.1087 15.108 27.2457C15.82 27.8717 16.5179 28.5157 17.2479 29.1207C17.571 29.4203 17.9501 29.653 18.3634 29.8056C18.7767 29.9582 19.2162 30.0275 19.6564 30.0097C20.0966 29.9919 20.529 29.8872 20.9286 29.7017C21.3282 29.5162 21.6872 29.2535 21.985 28.9288C22.5364 28.3495 23.1389 27.821 23.785 27.3497C24.975 26.1307 26.311 25.0718 27.559 23.9158C28.766 22.7978 30.0179 21.7278 31.2469 20.6328C33.4723 18.6488 35.6963 16.6627 37.9189 14.6747C37.8036 14.522 37.6511 14.4013 37.4758 14.3243C37.3006 14.2473 37.1085 14.2164 36.918 14.2347ZM5.96399 14.5267L5.94202 14.5468L5.96399 14.5267Z" fill="#1F2489"/>
<path d="M55.547 0.999683C45.7183 0.999683 35.8894 0.999683 26.0601 0.999683C25.7851 0.999683 25.509 1.0097 25.235 1.0147C23.751 1.0107 22.2666 1.00704 20.782 1.00371C20.6002 0.989661 20.418 1.0232 20.2532 1.10106C20.0883 1.17892 19.9466 1.29841 19.842 1.44771C20.888 2.39871 21.9061 3.38171 22.9921 4.28371C23.4041 4.62571 23.708 5.11268 24.243 5.30568L24.361 5.5237C25.313 6.3477 26.272 7.16169 27.213 7.99669C29.2623 9.81469 31.3054 11.6394 33.342 13.4707C33.599 13.7017 33.823 13.9707 34.062 14.2197C35.014 14.2197 35.962 14.2327 36.917 14.2327C37.1073 14.2143 37.2992 14.2451 37.4742 14.3219C37.6493 14.3988 37.8017 14.5192 37.917 14.6717C38.069 14.844 38.1808 15.048 38.2439 15.2689C38.307 15.4899 38.32 15.7221 38.282 15.9487C38.282 16.2237 38.301 16.4977 38.311 16.7727C38.7957 16.7624 39.2735 16.6554 39.7163 16.4581C40.1592 16.2608 40.5582 15.9772 40.89 15.6237C41.3487 15.2057 41.806 14.786 42.262 14.3647C42.3392 14.2852 42.4443 14.2386 42.5551 14.2347C43.519 13.2066 44.5502 12.2439 45.642 11.3527C47.588 9.55271 49.5921 7.81069 51.5751 6.05269C52.7511 5.00769 53.955 3.9927 55.104 2.9197C55.6826 2.47433 56.2108 1.96698 56.6791 1.4067C56.5413 1.24722 56.3647 1.12597 56.1664 1.05468C55.9681 0.983379 55.7548 0.964429 55.547 0.999683Z" fill="#1F2489"/>
<path d="M38.286 20.5567C38.286 19.2957 38.304 18.0347 38.314 16.7737C38.304 16.4987 38.285 16.2247 38.285 15.9497C38.3231 15.7231 38.31 15.4909 38.2468 15.27C38.1837 15.049 38.0721 14.845 37.9201 14.6727C35.6961 16.6587 33.4724 18.6447 31.249 20.6307C30.02 21.7307 28.7681 22.7957 27.5611 23.9137C26.3131 25.0697 24.977 26.1287 23.787 27.3477C24.8 28.2977 25.802 29.2607 26.827 30.1967C29.2024 32.3667 31.5841 34.5294 33.9721 36.6847C34.9341 37.5547 35.92 38.3987 36.872 39.2847C37.2568 39.5649 37.5809 39.92 37.825 40.3287C38.0014 40.1811 38.1366 39.9903 38.2172 39.7749C38.2978 39.5595 38.3212 39.3269 38.285 39.0997C38.285 35.9764 38.285 32.853 38.285 29.7297C38.285 28.9777 38.3051 28.2297 38.3151 27.4727C38.3031 25.1637 38.288 22.8607 38.286 20.5567Z" fill="#AEB2F3"/>
<path d="M6.93005 19.9367C6.50719 19.4833 6.03292 19.0805 5.51697 18.7367C5.51374 18.7082 5.50776 18.6801 5.49902 18.6527C4.13302 17.448 2.76638 16.2427 1.39905 15.0367C1.26605 14.9187 1.09905 14.8127 1.07605 14.6107C0.922767 14.7415 0.803214 14.9073 0.727662 15.0941C0.65211 15.2809 0.622706 15.4831 0.641968 15.6837C0.647302 23.537 0.647302 31.3904 0.641968 39.2437C0.627799 39.4445 0.658656 39.6458 0.732178 39.8332C0.805701 40.0205 0.920087 40.1892 1.06702 40.3267C1.70844 39.5584 2.42387 38.855 3.203 38.2267C3.803 37.5987 4.503 37.0567 5.151 36.4737C5.23519 36.3767 5.34792 36.3088 5.47302 36.2797C5.47902 36.2457 5.486 36.2117 5.495 36.1797C7.243 34.6004 8.9907 33.0207 10.738 31.4407C11.838 30.4487 12.95 29.4737 14.026 28.4597C14.416 28.0917 14.911 27.7997 15.1 27.2477C14.949 27.1157 14.8 26.9867 14.649 26.8527C12.081 24.5417 9.51905 22.2237 6.93005 19.9367Z" fill="#AEB2F3"/>
<path d="M56.682 1.40369C56.2138 1.96401 55.6856 2.47137 55.1069 2.91669C53.9579 3.98969 52.7539 5.00468 51.5779 6.04968C49.5949 7.81168 47.5909 9.54967 45.6449 11.3497C44.5536 12.2409 43.5226 13.2037 42.5589 14.2317C43.1761 14.624 43.7353 15.101 44.2199 15.6487C45.6989 16.9267 47.1 18.2937 48.549 19.6077C50.726 21.5827 52.9349 23.5257 55.0919 25.5227C55.6905 25.9713 56.2283 26.4956 56.6919 27.0827C56.9179 26.9387 56.9559 26.6617 57.1189 26.4737V1.99469C56.9369 1.82369 56.925 1.52769 56.682 1.40369Z" fill="#AEB2F3"/>
<path d="M33.3429 13.4717C31.3035 11.6424 29.2605 9.81774 27.2138 7.99774C26.2728 7.16274 25.3139 6.34875 24.3609 5.52475L24.2429 5.30673C23.7089 5.11373 23.4049 4.62773 22.9919 4.28473C21.9059 3.38473 20.8919 2.39973 19.8419 1.44873C19.6857 1.60332 19.5681 1.79251 19.4986 2.00098C19.4291 2.20945 19.4097 2.43136 19.4418 2.64874C19.4418 6.50341 19.4418 10.3577 19.4418 14.2117H24.3538L34.0589 14.2188C33.8259 13.9698 33.5999 13.7037 33.3429 13.4717Z" fill="#AEB2F3"/>
</svg>
