<svg width="55" height="56" viewBox="0 0 55 56" fill="none" xmlns="http://www.w3.org/2000/svg">
<path d="M23.9819 55.1443H23.7708C23.7938 54.9443 23.6339 54.8273 23.5339 54.6913C22.4009 53.1413 21.2549 51.6013 20.1339 50.0433C20.0479 49.9042 19.9257 49.7911 19.7804 49.7163C19.635 49.6414 19.4721 49.6075 19.3089 49.6183C16.6089 49.6343 13.9179 49.6313 11.2219 49.6243C10.8327 49.6496 10.4426 49.5914 10.0777 49.4535C9.71287 49.3157 9.38164 49.1014 9.10641 48.825C8.83119 48.5486 8.61825 48.2166 8.4819 47.8512C8.34555 47.4858 8.28897 47.0954 8.31589 46.7063C8.31189 41.3149 8.31189 35.9239 8.31589 30.5333C8.28586 30.1448 8.34031 29.7544 8.47543 29.389C8.61055 29.0235 8.8232 28.6916 9.09872 28.4161C9.37424 28.1405 9.70603 27.9279 10.0715 27.7928C10.437 27.6577 10.8274 27.6033 11.2159 27.6333C13.3829 27.6273 15.5499 27.6333 17.7159 27.6333C19.5649 27.6333 21.4159 27.6173 23.2639 27.6093C23.4919 27.6173 23.7198 27.6333 23.9478 27.6333H36.4969C37.1599 27.5348 37.8357 27.689 38.3902 28.0654C38.9448 28.4418 39.3377 29.0128 39.4909 29.6653C39.5059 29.9813 39.5339 30.2983 39.5339 30.6153C39.5339 35.9886 39.5339 41.3619 39.5339 46.7353C39.5716 47.1418 39.5188 47.5517 39.3792 47.9354C39.2397 48.3192 39.0169 48.6672 38.7268 48.9545C38.4367 49.2418 38.0865 49.4613 37.7015 49.5972C37.3165 49.733 36.906 49.7819 36.4998 49.7403C33.7998 49.7403 31.1089 49.7463 28.4139 49.7343C28.2593 49.7223 28.1043 49.752 27.9652 49.8205C27.826 49.8889 27.7078 49.9935 27.6229 50.1233C26.4959 51.6553 25.3449 53.1703 24.2069 54.6953C24.1129 54.8263 23.9469 54.9373 23.9819 55.1443ZM32.2079 35.7573C31.8243 35.7561 31.4443 35.8305 31.0896 35.9763C30.7348 36.1221 30.4123 36.3365 30.1405 36.607C29.8686 36.8776 29.6528 37.199 29.5053 37.5531C29.3578 37.9071 29.2815 38.2868 29.2809 38.6703C29.2824 39.0582 29.3606 39.442 29.5107 39.7998C29.6609 40.1575 29.8802 40.4821 30.156 40.7549C30.4318 41.0277 30.7587 41.2435 31.118 41.3897C31.4773 41.536 31.8619 41.6099 32.2498 41.6073C33.0236 41.5934 33.7611 41.2763 34.3034 40.7242C34.8458 40.1721 35.1497 39.4292 35.1499 38.6553C35.1427 37.8813 34.8291 37.1416 34.2777 36.5984C33.7262 36.0552 32.9819 35.7527 32.2079 35.7573ZM15.6969 35.7573C15.3087 35.7478 14.9226 35.8157 14.5609 35.9569C14.1992 36.098 13.8692 36.3097 13.5901 36.5795C13.3109 36.8494 13.0881 37.172 12.9348 37.5287C12.7815 37.8854 12.7006 38.2691 12.6969 38.6573C12.6974 39.4226 12.9947 40.1578 13.5262 40.7083C14.0577 41.2589 14.7821 41.5819 15.5468 41.6093C15.9348 41.6193 16.321 41.5526 16.6831 41.4131C17.0452 41.2736 17.3762 41.0641 17.6572 40.7965C17.9382 40.5288 18.1636 40.2084 18.3205 39.8535C18.4775 39.4986 18.5629 39.1162 18.5719 38.7283C18.5784 38.3444 18.5091 37.9631 18.3681 37.606C18.2271 37.2489 18.0171 36.9232 17.7501 36.6473C17.4831 36.3715 17.1643 36.151 16.812 35.9984C16.4597 35.8459 16.0807 35.7643 15.6969 35.7583V35.7573ZM23.9569 35.7573C23.1828 35.7626 22.4422 36.0736 21.8966 36.6227C21.3509 37.1717 21.0444 37.9142 21.0439 38.6883C21.0526 39.4629 21.3653 40.203 21.9148 40.7491C22.4642 41.2952 23.2063 41.6034 23.9809 41.6073C24.369 41.6057 24.7529 41.5276 25.1108 41.3775C25.4687 41.2274 25.7934 41.0082 26.0665 40.7324C26.3396 40.4567 26.5556 40.1298 26.7022 39.7704C26.8488 39.4111 26.9231 39.0264 26.9209 38.6383C26.9077 37.8639 26.5886 37.1262 26.0332 36.5863C25.4778 36.0465 24.7313 35.7484 23.9569 35.7573Z" fill="#AEB2F3"/>
<path d="M39.495 29.6623C39.3417 29.0098 38.9489 28.4387 38.3943 28.0623C37.8397 27.686 37.1639 27.5318 36.501 27.6303H23.9519C23.7239 27.6303 23.4959 27.6143 23.2679 27.6063C23.1189 26.1063 23.2499 24.6063 23.1909 23.1143C23.2449 20.3243 23.23 17.5353 23.199 14.7453C23.199 14.5533 23.1989 14.3603 23.2069 14.1673C23.141 12.5422 23.1892 10.9146 23.3509 9.29629C23.6305 8.73529 24.0773 8.27495 24.6298 7.97885C25.1822 7.68274 25.813 7.56547 26.4349 7.64328C28.1349 7.71728 29.8349 7.65128 31.5349 7.64328C31.7809 7.64328 32.0269 7.65628 32.2739 7.65628C38.7132 7.65628 45.1526 7.65628 51.5919 7.65628C52.1955 7.63228 52.79 7.80883 53.2826 8.15835C53.7752 8.50787 54.1382 9.01069 54.3149 9.58829C54.3499 9.68829 54.3929 9.7823 54.4319 9.8793V27.4333C54.2721 28.1193 53.8668 28.7232 53.2925 29.1311C52.7181 29.5389 52.0144 29.7226 51.314 29.6473C50.94 29.6283 50.9359 29.8473 50.9369 30.1123C50.9419 31.6123 50.9269 33.1043 50.9469 34.6003C50.9529 35.0433 50.8859 35.1583 50.4469 34.9253C47.3339 33.2863 44.2069 31.6753 41.0959 30.0323C40.6163 29.7391 40.0546 29.6093 39.495 29.6623ZM47.0829 21.6303C47.4663 21.6375 47.8473 21.5681 48.2036 21.4264C48.5599 21.2846 48.8843 21.0732 49.1579 20.8046C49.4316 20.536 49.6489 20.2156 49.7972 19.862C49.9456 19.5084 50.022 19.1287 50.022 18.7453C50.0315 18.362 49.9645 17.9808 49.8249 17.6237C49.6853 17.2667 49.476 16.9411 49.209 16.666C48.942 16.391 48.6228 16.1719 48.2701 16.0217C47.9174 15.8715 47.5382 15.7932 47.1549 15.7913C46.7671 15.7813 46.3813 15.8491 46.0203 15.9909C45.6592 16.1326 45.3302 16.3453 45.0528 16.6165C44.7755 16.8876 44.5552 17.2117 44.4053 17.5694C44.2553 17.9272 44.1787 18.3114 44.1799 18.6993C44.1772 19.0825 44.2501 19.4625 44.3946 19.8175C44.5391 20.1724 44.7523 20.4954 45.022 20.7677C45.2916 21.0401 45.6124 21.2564 45.9659 21.4044C46.3194 21.5525 46.6987 21.6292 47.0819 21.6303H47.0829ZM30.4089 21.6303C30.7924 21.6326 31.1725 21.5593 31.5276 21.4145C31.8826 21.2697 32.2055 21.0562 32.4779 20.7863C32.7503 20.5165 32.9668 20.1955 33.1149 19.8418C33.263 19.4881 33.3398 19.1087 33.3409 18.7253C33.3444 18.3419 33.2719 17.9616 33.1278 17.6063C32.9837 17.251 32.7707 16.9277 32.5012 16.655C32.2317 16.3823 31.911 16.1657 31.5574 16.0174C31.2038 15.8692 30.8243 15.7923 30.4409 15.7913C30.0532 15.7862 29.6685 15.8583 29.309 16.0034C28.9494 16.1484 28.6222 16.3636 28.3465 16.6363C28.0709 16.9089 27.8523 17.2337 27.7034 17.5916C27.5544 17.9496 27.478 18.3336 27.4789 18.7213C27.4836 19.4948 27.7944 20.235 28.3433 20.7801C28.8921 21.3251 29.6344 21.6308 30.4079 21.6303H30.4089ZM38.751 15.7913C38.3677 15.7904 37.9879 15.865 37.6335 16.011C37.2791 16.1569 36.957 16.3713 36.6855 16.6418C36.4141 16.9124 36.1985 17.2338 36.0514 17.5877C35.9042 17.9416 35.8283 18.321 35.8279 18.7043C35.8274 19.092 35.9041 19.4759 36.0535 19.8337C36.2028 20.1915 36.4218 20.516 36.6977 20.7884C36.9737 21.0608 37.3009 21.2756 37.6606 21.4203C38.0203 21.565 38.4053 21.6367 38.793 21.6313C39.1763 21.6308 39.5558 21.554 39.9092 21.4053C40.2625 21.2566 40.5827 21.0391 40.8511 20.7653C41.1194 20.4915 41.3307 20.167 41.4723 19.8108C41.6139 19.4545 41.6831 19.0736 41.6759 18.6903C41.6785 18.3065 41.6043 17.9262 41.4579 17.5714C41.3114 17.2167 41.0957 16.8948 40.8231 16.6247C40.5505 16.3545 40.2267 16.1415 39.8707 15.9983C39.5147 15.855 39.1337 15.7842 38.75 15.7903L38.751 15.7913Z" fill="#1F2489"/>
<path d="M32.2079 35.7573C32.9828 35.7519 33.7282 36.0543 34.2804 36.5981C34.8326 37.1418 35.1463 37.8824 35.153 38.6573C35.1528 39.4312 34.8489 40.1741 34.3065 40.7262C33.7642 41.2783 33.0267 41.5954 32.2529 41.6093C31.865 41.6119 31.4804 41.538 31.1211 41.3917C30.7618 41.2454 30.4347 41.0297 30.1589 40.7569C29.8831 40.484 29.664 40.1595 29.5138 39.8018C29.3636 39.4441 29.2855 39.0602 29.2839 38.6723C29.2843 38.2888 29.3603 37.9092 29.5074 37.5551C29.6546 37.201 29.8703 36.8795 30.1418 36.6087C30.4134 36.338 30.7356 36.1235 31.0901 35.9774C31.4446 35.8313 31.8244 35.7565 32.2079 35.7573Z" fill="white"/>
<path d="M15.6969 35.7582C16.0805 35.7642 16.4592 35.8457 16.8113 35.998C17.1634 36.1504 17.4819 36.3706 17.7489 36.6461C18.0159 36.9217 18.226 37.2471 18.3672 37.6038C18.5084 37.9605 18.578 38.3416 18.5719 38.7252C18.563 39.1131 18.4775 39.4955 18.3206 39.8504C18.1636 40.2053 17.9381 40.5257 17.6571 40.7934C17.3761 41.061 17.0451 41.2705 16.683 41.41C16.3209 41.5495 15.9348 41.6162 15.5469 41.6062C14.7821 41.5787 14.0578 41.2558 13.5262 40.7052C12.9947 40.1547 12.6974 39.4194 12.6969 38.6542C12.7013 38.2663 12.7825 37.8832 12.9362 37.527C13.0898 37.1708 13.3126 36.8487 13.5917 36.5793C13.8707 36.3099 14.2005 36.0986 14.5619 35.9576C14.9233 35.8167 15.3091 35.7489 15.6969 35.7582Z" fill="white"/>
<path d="M23.9569 35.7563C24.7312 35.7477 25.4774 36.0459 26.0326 36.5857C26.5878 37.1255 26.9068 37.8631 26.9199 38.6373C26.9222 39.0254 26.8479 39.4101 26.7013 39.7694C26.5547 40.1288 26.3386 40.4556 26.0656 40.7314C25.7925 41.0072 25.4677 41.2264 25.1099 41.3765C24.752 41.5266 24.3679 41.6047 23.9799 41.6063C23.2052 41.6024 22.4633 41.2942 21.9138 40.7481C21.3644 40.202 21.0516 39.4619 21.043 38.6873C21.0435 37.913 21.3501 37.1704 21.896 36.6213C22.4419 36.0723 23.1827 35.7613 23.9569 35.7563Z" fill="white"/>
<path d="M0.389913 21.1982C0.303146 20.7312 0.269623 20.2558 0.289938 19.7812C0.289938 14.5146 0.289938 9.24792 0.289938 3.98125C0.254488 3.57905 0.307863 3.17395 0.44631 2.79467C0.584757 2.41539 0.804869 2.07121 1.09109 1.78643C1.3773 1.50164 1.72259 1.2832 2.10256 1.14666C2.48253 1.01011 2.88792 0.958801 3.28994 0.996267H28.7009C29.0767 0.966348 29.4545 1.01759 29.8086 1.1466C30.1628 1.2756 30.485 1.47932 30.7534 1.74389C31.0219 2.00845 31.2302 2.32769 31.3644 2.67992C31.4986 3.03215 31.5553 3.40915 31.5309 3.78527C31.5519 5.07027 31.5389 6.35623 31.5409 7.64123C29.8409 7.64623 28.1339 7.71223 26.4359 7.64123C25.814 7.56327 25.1831 7.68049 24.6306 7.97661C24.0782 8.27273 23.6314 8.73314 23.3519 9.29424C22.7827 9.48997 22.2882 9.85746 21.9367 10.3461C21.5851 10.8347 21.3937 11.4203 21.3889 12.0223C21.3805 12.6057 21.549 13.1779 21.8723 13.6637C22.1956 14.1494 22.6585 14.5258 23.2 14.7432C23.231 17.5332 23.2459 20.3232 23.1919 23.1122C23.17 23.116 23.1487 23.1231 23.1289 23.1332C23.1156 23.1228 23.0997 23.1164 23.0829 23.1146C23.0661 23.1128 23.0491 23.1158 23.034 23.1232C20.272 23.1172 17.5099 23.0812 14.7479 23.1232C14.0059 23.1352 13.415 23.7013 12.772 24.0483L12.4319 24.2103L7.69594 26.6923L7.35598 26.8542L5.26296 27.9612L4.92299 28.1232L3.87392 28.6232V23.1993C3.88292 23.1303 3.85091 23.1062 3.78591 23.1182C3.36383 23.1242 2.94189 23.1011 2.52297 23.0492C2.0366 22.9542 1.58366 22.7333 1.20937 22.4085C0.835086 22.0837 0.552496 21.6664 0.389913 21.1982ZM15.9899 14.9742C16.7642 14.9726 17.5061 14.6638 18.0529 14.1156C18.5996 13.5673 18.9064 12.8245 18.9059 12.0502C18.9056 11.6623 18.828 11.2784 18.6778 10.9208C18.5275 10.5632 18.3076 10.2391 18.0308 9.9674C17.754 9.69569 17.4258 9.48187 17.0655 9.33831C16.7051 9.19475 16.3197 9.12431 15.9319 9.13122C15.5483 9.13354 15.1691 9.21195 14.8161 9.36187C14.463 9.51179 14.1432 9.73026 13.8751 10.0046C13.6071 10.279 13.3962 10.6038 13.2545 10.9603C13.1129 11.3167 13.0433 11.6977 13.0499 12.0812C13.0507 12.4649 13.1276 12.8447 13.2761 13.1985C13.4247 13.5523 13.6421 13.8731 13.9155 14.1423C14.189 14.4114 14.5132 14.6237 14.8693 14.7667C15.2254 14.9096 15.6062 14.9806 15.9899 14.9753V14.9742ZM7.62392 9.13122C7.24065 9.12897 6.86072 9.20271 6.50612 9.3482C6.15153 9.49368 5.82926 9.70802 5.558 9.97881C5.28675 10.2496 5.07189 10.5715 4.9258 10.9258C4.77971 11.2802 4.70534 11.66 4.70693 12.0433C4.70202 12.4269 4.77352 12.8077 4.91714 13.1635C5.06075 13.5193 5.27362 13.843 5.54348 14.1157C5.81334 14.3885 6.13479 14.6048 6.48903 14.7522C6.84328 14.8996 7.22327 14.9751 7.60695 14.9742C7.9947 14.9793 8.37955 14.9069 8.73891 14.7612C9.09828 14.6154 9.42489 14.3994 9.69961 14.1257C9.97432 13.852 10.1916 13.5262 10.3386 13.1674C10.4857 12.8086 10.5596 12.424 10.5559 12.0362C10.5549 11.6527 10.4781 11.2732 10.33 10.9195C10.1819 10.5657 9.9653 10.2447 9.69277 9.97484C9.42024 9.70501 9.09717 9.4917 8.74196 9.3471C8.38676 9.20249 8.00645 9.12949 7.62295 9.13225L7.62392 9.13122Z" fill="#FFC785"/>
<path d="M47.0819 21.6303C46.6988 21.629 46.3198 21.5521 45.9665 21.4039C45.6132 21.2558 45.2927 21.0393 45.0233 20.767C44.7538 20.4947 44.5408 20.1718 44.3964 19.817C44.2521 19.4622 44.1791 19.0823 44.1818 18.6993C44.1806 18.3114 44.2574 17.9272 44.4073 17.5695C44.5572 17.2117 44.7774 16.8877 45.0548 16.6165C45.3322 16.3454 45.6611 16.1326 46.0222 15.9908C46.3832 15.8491 46.7692 15.7812 47.1569 15.7913C47.5403 15.7931 47.9194 15.8715 48.272 16.0217C48.6247 16.1719 48.9439 16.391 49.2109 16.6661C49.4779 16.9412 49.6873 17.2667 49.8269 17.6238C49.9665 17.9808 50.0335 18.3621 50.0239 18.7453C50.024 19.129 49.9476 19.5089 49.799 19.8627C49.6505 20.2165 49.4329 20.5371 49.1589 20.8057C48.8849 21.0744 48.5601 21.2857 48.2034 21.4272C47.8468 21.5688 47.4655 21.6379 47.0819 21.6303Z" fill="white"/>
<path d="M30.4078 21.6303C29.6339 21.6313 28.8911 21.3257 28.3419 20.7803C27.7928 20.2349 27.4821 19.4942 27.4779 18.7203C27.4771 18.3326 27.5533 17.9486 27.7023 17.5906C27.8512 17.2327 28.07 16.9079 28.3456 16.6353C28.6212 16.3626 28.9483 16.1475 29.3079 16.0024C29.6674 15.8574 30.0521 15.7852 30.4398 15.7903C30.8232 15.7913 31.2027 15.8682 31.5563 16.0164C31.9099 16.1647 32.2307 16.3813 32.5003 16.654C32.7698 16.9267 32.9827 17.25 33.1268 17.6053C33.2709 17.9606 33.3433 18.3409 33.3399 18.7243C33.3389 19.1079 33.2623 19.4875 33.1143 19.8413C32.9663 20.1952 32.75 20.5163 32.4775 20.7863C32.2051 21.0563 31.882 21.2698 31.5269 21.4147C31.1717 21.5595 30.7914 21.6328 30.4078 21.6303Z" fill="white"/>
<path d="M38.7499 15.7913C39.1334 15.7856 39.5142 15.8565 39.87 15.9999C40.2258 16.1433 40.5494 16.3563 40.8218 16.6264C41.0941 16.8965 41.3097 17.2184 41.4561 17.573C41.6024 17.9275 41.6765 18.3077 41.674 18.6913C41.6811 19.0746 41.6118 19.4555 41.4702 19.8118C41.3286 20.168 41.1174 20.4925 40.849 20.7663C40.5806 21.0401 40.2605 21.2576 39.9071 21.4063C39.5537 21.555 39.1743 21.6319 38.7909 21.6323C38.4032 21.6378 38.0184 21.566 37.6587 21.4213C37.299 21.2766 36.9716 21.0619 36.6957 20.7895C36.4198 20.5171 36.2008 20.1925 36.0515 19.8347C35.9022 19.4769 35.8255 19.0931 35.8259 18.7053C35.8262 18.3219 35.902 17.9422 36.0492 17.5882C36.1964 17.2341 36.4119 16.9125 36.6835 16.6419C36.9551 16.3712 37.2774 16.1568 37.632 16.0108C37.9865 15.8649 38.3664 15.7903 38.7499 15.7913Z" fill="white"/>
<path d="M23.2 14.7493C22.6585 14.5319 22.1957 14.1555 21.8724 13.6697C21.5491 13.184 21.3805 12.6117 21.389 12.0283C21.3937 11.4263 21.5851 10.8407 21.9367 10.3521C22.2883 9.86351 22.7828 9.49603 23.352 9.30029C23.1902 10.9186 23.142 12.5462 23.2079 14.1713C23.1999 14.3593 23.202 14.5493 23.2 14.7493Z" fill="white"/>
<path d="M23.0328 23.1253C23.048 23.1179 23.065 23.1149 23.0818 23.1167C23.0986 23.1185 23.1146 23.1249 23.1279 23.1354L23.0789 23.1493L23.0328 23.1253Z" fill="#FEFEFE"/>
<path d="M15.9898 14.9753C15.6063 14.9806 15.2255 14.9097 14.8696 14.7669C14.5136 14.624 14.1895 14.4119 13.9161 14.143C13.6426 13.874 13.4254 13.5535 13.2767 13.1999C13.128 12.8464 13.0508 12.4668 13.0497 12.0833C13.0431 11.6998 13.1127 11.3188 13.2543 10.9623C13.396 10.6059 13.6069 10.2811 13.8749 10.0067C14.143 9.73232 14.4628 9.51385 14.8159 9.36393C15.1689 9.21401 15.5483 9.1356 15.9318 9.13328C16.3197 9.12637 16.7049 9.19674 17.0653 9.34031C17.4256 9.48387 17.7538 9.69775 18.0306 9.96946C18.3074 10.2412 18.5274 10.5653 18.6777 10.9229C18.8279 11.2805 18.9055 11.6644 18.9058 12.0523C18.9061 12.8264 18.5991 13.569 18.0524 14.117C17.5057 14.665 16.7639 14.9737 15.9898 14.9753Z" fill="white"/>
<path d="M7.62292 9.13227C8.00625 9.1299 8.38628 9.20325 8.7412 9.34809C9.09613 9.49293 9.41893 9.70643 9.69115 9.97633C9.96338 10.2462 10.1796 10.5672 10.3275 10.9209C10.4754 11.2746 10.5521 11.654 10.553 12.0373C10.5566 12.4251 10.4827 12.8098 10.3356 13.1686C10.1884 13.5275 9.9711 13.8534 9.69628 14.1271C9.42146 14.4008 9.0947 14.6169 8.73522 14.7625C8.37574 14.9082 7.99073 14.9805 7.6029 14.9753C7.21921 14.9761 6.83922 14.9006 6.48498 14.7532C6.13073 14.6059 5.80928 14.3895 5.53942 14.1168C5.26956 13.844 5.05669 13.5203 4.91308 13.1645C4.76946 12.8087 4.69797 12.4279 4.70287 12.0443C4.70128 11.6607 4.77583 11.2807 4.92211 10.9262C5.06839 10.5716 5.28347 10.2496 5.55505 9.97877C5.82662 9.70794 6.14932 9.4937 6.50426 9.3484C6.85921 9.20309 7.23939 9.12962 7.62292 9.13227Z" fill="white"/>
</svg>
